# xmcd
#
# Track frame offsets: 
#        150
#        21082
#        41635
#        68126
#        89245
#        107317
#        132215
#        153209
#        169656
#        194558
#
# Disc length: 2926 seconds
#
# Revision: 1
# Processed by: cddbd v1.5.2PL0 Copyright (c) Steve Scherf et al.
# Submitted via: ExactAudioCopy v0.99pb5
#
DISCID=800b6c0a
DTITLE=The Ivas John Band - Street Music
DYEAR=2007
DGENRE=Blues
TTITLE0=I've Got A Women
TTITLE1=Honky Tonk Girl
TTITLE2=Fool For Men
TTITLE3=The Streetlife
TTITLE4=The Woman I Want
TTITLE5=Playhouse To Poorhouse
TTITLE6=Remember The Day
TTITLE7=Baby By My Side
TTITLE8=Halfway With You
TTITLE9=Live Your Own Way
EXTD=
EXTT0=
EXTT1=
EXTT2=
EXTT3=
EXTT4=
EXTT5=
EXTT6=
EXTT7=
EXTT8=
EXTT9=
PLAYORDER=
